<svg xmlns="http://www.w3.org/2000/svg" viewBox="0 0 64 64" role="img" aria-label="Scientific Pest Management (Thailand)">
  <rect width="64" height="64" rx="14" fill="#0F2647"/>
  <g fill="#9FD0FF">
    <path d="M32 31C33 21 40 13 48 12c8-1 11 7 6 14-4 5-13 7-22 5Z"/>
    <path d="M32 33c9 0 17 3 19 9 2 6-3 11-8 9-6-2-10-10-11-18Z"/>
    <path d="M32 31C31 21 24 13 16 12 8 11 5 19 10 26c4 5 13 7 22 5Z"/>
    <path d="M32 33c-9 0-17 3-19 9-2 6 3 11 8 9 6-2 10-10 11-18Z"/>
  </g>
  <g fill="none" stroke="#9FD0FF" stroke-width="2" stroke-linecap="round">
    <path d="M32 20c-3-5-6-7-9-8"/>
    <path d="M32 20c3-5 6-7 9-8"/>
  </g>
  <ellipse cx="32" cy="33" rx="2.4" ry="12" fill="#F5B843"/>
  <circle cx="32" cy="20.5" r="2.8" fill="#F5B843"/>
</svg>
